<svg width="126" height="40" viewBox="0 0 126 40" fill="none" xmlns="http://www.w3.org/2000/svg">
<g id="LOGO">
<g id="icon/logo">
<path id="Union" fill-rule="evenodd" clip-rule="evenodd" d="M18.2579 12.1665H23.8333C28.1596 12.1665 31.6667 15.6736 31.6667 19.9999C31.6667 24.3261 28.1596 27.8332 23.8333 27.8332H20.1667L16.9246 35.8332H23.8333C32.5778 35.8332 39.6667 28.7444 39.6667 19.9999C39.6667 11.2554 32.5778 4.16654 23.8333 4.16654H21.5L18.2579 12.1665ZM21.4999 4.16663H13.1666L0.333252 35.8333H8.66659L21.4999 4.16663Z" fill="#53A9FF"/>
</g>
<g id="Frame" clip-path="url(#clip0_106_579)">
<path id="Vector" d="M61.7196 10.0309C62.9735 9.99794 64.2185 10.2553 65.3619 10.7838C66.3242 11.2203 67.1396 11.9378 67.7063 12.8467C68.2517 13.7802 68.5274 14.8533 68.5012 15.9411C68.4968 16.398 68.453 16.8536 68.3704 17.3026C68.2548 18.1767 67.9635 19.0169 67.515 19.7697C67.0664 20.5225 66.4703 21.1717 65.7644 21.6761C64.1156 22.7527 62.1833 23.2821 60.2305 23.1923H56.9805L55.8033 30.0206H52L55.3807 10.0412L61.7196 10.0309ZM64.4564 16.0649C64.4771 15.6801 64.4032 15.2963 64.2414 14.9484C64.0797 14.6006 63.8353 14.3 63.5307 14.0743C62.7593 13.5751 61.8558 13.3336 60.9448 13.3831H58.6307L57.5339 19.8297H60.15C61.1213 19.8533 62.0807 19.6073 62.927 19.118C63.3323 18.8627 63.6759 18.5167 63.9321 18.1058C64.1882 17.6949 64.3503 17.23 64.4061 16.7457C64.4362 16.4156 64.4564 16.1887 64.4564 16.0649V16.0649Z" fill="#333333"/>
<path id="Vector_2" d="M77.9793 10.0311C79.561 9.99024 81.1287 10.3442 82.5473 11.0625C83.8588 11.747 84.9542 12.7984 85.7067 14.095C86.4841 15.4875 86.8771 17.0707 86.8436 18.6747C86.8451 19.3905 86.7845 20.105 86.6625 20.8098C86.3876 22.6504 85.6682 24.3913 84.5697 25.8743C83.5425 27.2297 82.1955 28.2946 80.6557 28.9687C79.0465 29.6698 77.3129 30.0211 75.5645 30.0001H68.6421L72.0228 10.0208L77.9793 10.0311ZM82.829 18.7675C82.8689 18.0346 82.7578 17.3014 82.503 16.6154C82.2481 15.9295 81.8553 15.3062 81.35 14.7861C80.188 13.7643 78.6819 13.2497 77.1543 13.3523H75.313L73.0793 26.5963H75.5042C77.2382 26.6924 78.9505 26.1633 80.3438 25.1007C81.6518 23.8988 82.4857 22.2478 82.6882 20.4591C82.7893 19.9014 82.8365 19.3348 82.829 18.7675V18.7675Z" fill="#333333"/>
<path id="Vector_3" d="M88.9465 23.3471L89.4798 20.1804H99.461L98.9277 23.3471H88.9465Z" fill="#333333"/>
<path id="Vector_4" d="M103.777 17.2615L104.391 13.4657L110.941 10H113.96L110.499 30.0103H106.585L109.271 14.394L103.777 17.2615Z" fill="#333333"/>
</g>
</g>
<defs>
<clipPath id="clip0_106_579">
<rect width="62" height="20" fill="white" transform="translate(52 10)"/>
</clipPath>
</defs>
</svg>
